<svg width="78" height="29" viewBox="0 0 78 29" fill="none" xmlns="http://www.w3.org/2000/svg">
<path d="M0.599 29L3.018 19.16H11.341L13.514 29H19.418L12.858 0.586999H6.995L0.025 29H0.599ZM3.141 18.627L7.364 1.366L11.218 18.627H3.141ZM19.0131 0.586999L24.9581 29H30.8211L36.7661 0.586999H36.1921L30.4931 27.934L24.7531 0.586999H19.0131ZM39.6525 29H54.4945V28.467H45.3925V15.06H53.0595V14.527H45.3925V1.12H54.4945V0.586999H39.6525V29ZM57.8702 29H63.6102V15.142H65.3732L71.8512 29H77.6732L70.8672 14.896C74.2292 14.076 76.5252 11.452 76.5252 7.926C76.5252 3.662 73.1632 0.586999 68.6122 0.586999H57.8702V29ZM65.0452 1.12C68.5712 1.12 70.7032 4.236 70.7032 7.926C70.7032 11.616 68.5712 14.609 65.0452 14.609H63.6102V1.12H65.0452Z" fill="white"/>
</svg>